<svg width="343" height="34" viewBox="0 0 343 34" fill="none" xmlns="http://www.w3.org/2000/svg">
<path d="M32.2635 22.8659C32.2635 26.4678 32.5897 28.792 33.4279 31.4153H26.7724C27.6468 28.8328 27.9368 26.5403 27.9368 22.8659V9.55036L17.6431 22.2815L7.42196 9.65909V22.8614C7.42196 26.4633 7.74817 28.7875 8.58634 31.4107H1.93081C2.80523 28.8283 3.09519 26.5358 3.09519 22.8614V4.82036C2.18453 3.65598 1.20139 2.63658 0.186523 1.72592V1.61719H6.76954C7.39024 3.10777 8.07892 4.23589 9.67824 6.16595L17.6794 16.0609L26.5911 5.00157C27.5743 3.80095 28.2992 2.67283 28.8112 1.61719H34.5198V1.72592C33.6091 2.85405 32.993 3.9097 32.703 4.85208C32.413 5.79898 32.268 7.07207 32.268 8.70764V22.8569L32.2635 22.8659Z" fill="white"/>
<path d="M68.2689 31.4109H61.0289C61.1014 31.1572 61.1376 30.831 61.1376 30.4277C61.1376 29.1184 60.7752 27.664 59.647 25.2266L58.2289 21.9509H47.0609L45.4616 25.3353C44.4422 27.4466 43.9347 29.1546 43.9347 30.4277C43.9347 30.7539 43.971 31.0802 44.0072 31.4109H36.876V31.3022C38.2216 29.6666 39.6397 27.3741 41.1303 24.4292L52.987 0.896973H53.0957L64.155 24.5379C65.4644 27.4466 66.52 29.1229 68.2643 31.3022V31.4109H68.2689ZM48.701 18.5348H56.7021L52.8465 9.73173L48.701 18.5348Z" fill="white"/>
<path d="M96.6387 31.4107H88.8912C88.6013 29.9926 87.2919 27.7001 85.5431 25.5164L77.2158 15.259V22.8614C77.2158 26.4633 77.542 28.7875 78.3801 31.4107H71.7246C72.5628 28.792 72.889 26.4633 72.889 22.8614V10.1665C72.889 6.56465 72.5628 4.2359 71.7246 1.61719H78.3801C77.542 4.2359 77.2158 6.56465 77.2158 10.1665V14.824L84.7095 5.83976C86.0188 4.27668 86.4538 3.22103 86.5987 1.62171H94.8219V1.76669C92.2032 3.76924 89.8382 5.98473 87.7269 8.49471L82.3807 14.8965L91.3287 25.9196C93.3313 28.2846 95.0756 30.0651 96.6387 31.2658V31.4107Z" fill="white"/>
<path d="M128.137 31.4109H120.897C120.97 31.1572 121.006 30.831 121.006 30.4277C121.006 29.1184 120.643 27.664 119.515 25.2266L118.097 21.9509H106.929L105.33 25.3353C104.31 27.4466 103.803 29.1546 103.803 30.4277C103.803 30.7539 103.839 31.0802 103.875 31.4109H96.7441V31.3022C98.0897 29.6666 99.5078 27.3741 100.998 24.4292L112.855 0.896973H112.964L124.023 24.5379C125.333 27.4466 126.388 29.1229 128.132 31.3022V31.4109H128.137ZM108.569 18.5348H116.57L112.715 9.73173L108.569 18.5348Z" fill="white"/>
<path d="M138.715 31.4107H131.584C132.422 28.792 132.748 26.4633 132.748 22.8614V10.1665C132.748 6.56465 132.422 4.2359 131.584 1.61719H138.643C144.098 1.61719 147.808 4.77957 147.808 9.11087C147.808 11.5846 146.318 13.8409 143.735 15.4402C147.518 17.6602 149.263 19.9527 149.263 23.1876C149.263 28.0263 144.496 31.4062 138.715 31.4062V31.4107ZM137.08 15.3677C140.971 14.6383 143.336 12.0921 143.336 9.32836C143.336 6.34719 140.718 4.12716 137.08 4.12716V15.3677ZM137.08 15.9476V28.8962C141.918 28.8962 144.682 26.4587 144.682 23.1876C144.682 19.9165 141.556 16.6771 137.08 15.9476Z" fill="white"/>
<path d="M156.394 10.1709C156.394 6.56906 156.068 4.2403 155.229 1.62158H161.885C161.047 4.2403 160.721 6.56906 160.721 10.1709V22.8658C160.721 26.4677 161.047 28.7919 161.885 31.4151H155.229C156.068 28.7964 156.394 26.4677 156.394 22.8658V10.1709Z" fill="white"/>
<path d="M217.571 28.9007L213.022 31.7006C210.295 31.1569 206.765 28.792 203.381 25.4076C200.287 29.4444 195.96 31.7006 190.759 31.7006C183.229 31.7006 179.047 28.0625 179.047 22.6076C179.047 19.0782 180.755 16.6045 184.864 14.679C182.68 13.4059 181.589 11.4033 181.589 8.63962C181.589 4.71155 184.973 1.32715 189.372 1.32715C193.518 1.32715 196.721 3.83712 196.721 8.20014C196.721 10.5289 195.629 12.4544 193.704 13.8C196.979 14.9644 199.924 16.6362 202.579 18.8562C203.852 15.7618 204.468 12.2732 204.468 8.30889C204.468 7.21701 204.432 6.23386 204.36 5.36397C203.413 5.36397 202.43 5.43645 201.378 5.58143C200.359 5.69017 199.598 5.83513 199.122 6.01636V1.61712H214.798L214.762 6.34712C213.126 5.72642 210.58 5.36397 208.36 5.36397H208.215C208.324 6.52835 208.36 7.51149 208.36 8.27264C208.36 13.4013 207.45 17.8731 205.596 21.7694C210.073 25.8062 214.11 27.9175 217.566 28.7512V28.8961L217.571 28.9007ZM188.543 16.2783C185.086 17.8414 183.704 19.5539 183.704 22.1364C183.704 25.2263 186.432 27.5188 190.908 27.5188C194.836 27.5188 198.112 25.8108 200.441 22.6438C197.532 19.7714 193.604 17.8414 188.548 16.2783H188.543ZM189.454 12.7489C191.638 11.8383 192.802 10.3477 192.802 8.49464C192.802 6.6416 191.384 5.21899 189.236 5.21899C187.089 5.21899 185.562 6.74581 185.562 8.63962C185.562 10.5334 186.581 11.7658 189.454 12.7489Z" fill="white"/>
<path d="M232.917 24.5742H233.062C234.335 26.0285 235.427 27.0479 236.373 27.5916C237.32 28.1353 238.412 28.4298 239.649 28.4298C242.268 28.4298 244.307 26.536 244.307 24.0305C244.307 21.883 243.142 20.6461 238.63 18.0999C236.482 16.8993 234.955 15.6624 234.045 14.3893C233.17 13.1162 232.735 11.5531 232.735 9.73178C232.663 5.4775 236.555 1.1462 241.792 1.25494C243.831 1.25494 245.72 1.68988 247.469 2.5643V7.07682L247.36 7.11308C245.358 5.36878 243.795 4.78431 241.792 4.78431C238.92 4.78431 237.135 6.78685 237.135 8.9661C237.135 11.1453 238.48 12.8217 242.517 15.0417C247.283 17.7329 248.919 19.4047 249.028 23.3011C249.028 28.611 244.66 31.7779 239.205 31.7779C236.876 31.7779 234.77 31.3792 232.912 30.6136V24.5742H232.917Z" fill="white"/>
<path d="M270.087 31.7772C260.994 31.9584 254.592 24.356 254.737 16.5361C254.592 8.31292 261.723 1.07748 270.232 1.2587C278.672 1.14997 285.944 7.47929 285.799 16.3186C285.98 25.1579 278.781 31.9221 270.087 31.7772ZM270.961 28.6102C276.892 28.6102 281.037 23.6265 281.037 17.4059C281.146 10.5329 275.727 4.23988 269.362 4.4211C264.016 4.4211 259.539 8.89739 259.539 15.5529C259.431 22.3942 264.305 28.7552 270.961 28.6102Z" fill="white"/>
<path d="M318.936 21.7014C318.936 26.0282 319.153 28.7557 319.738 31.4151H314.246C313.884 30.3595 313.082 29.0139 311.809 27.4508L298.203 10.2072V21.7014C298.203 23.8852 298.276 25.6657 298.457 27.0838C298.638 28.5019 298.928 29.92 299.368 31.4106H292.712C293.147 29.92 293.442 28.4657 293.623 27.0476C293.804 25.6295 293.877 23.8444 293.877 21.7014V5.65839C292.604 4.05907 291.657 3.07592 290.166 1.76657V1.62158H297.515C297.841 2.38726 298.208 3.11216 298.679 3.8416C299.15 4.57103 299.88 5.54967 300.863 6.75029L314.613 24.1752V11.3353C314.613 9.18778 314.541 7.40721 314.36 5.98912C314.178 4.57103 313.889 3.1167 313.449 1.62612H320.105C319.67 3.1167 319.375 4.5348 319.194 5.9529C319.013 7.37099 318.94 9.15607 318.94 11.3353V21.7014H318.936Z" fill="white"/>
<path d="M326.534 24.5742H326.679C327.952 26.0285 329.044 27.0479 329.991 27.5916C330.938 28.1353 332.029 28.4298 333.266 28.4298C335.885 28.4298 337.924 26.536 337.924 24.0305C337.924 21.883 336.759 20.6461 332.247 18.0999C330.099 16.8993 328.573 15.6624 327.662 14.3893C326.788 13.1162 326.353 11.5531 326.353 9.73178C326.28 5.4775 330.172 1.1462 335.409 1.25494C337.448 1.25494 339.337 1.68988 341.086 2.5643V7.07682L340.978 7.11308C338.975 5.36878 337.412 4.78431 335.409 4.78431C332.537 4.78431 330.752 6.78685 330.752 8.9661C330.752 11.1453 332.097 12.8217 336.134 15.0417C340.9 17.7329 342.536 19.4047 342.645 23.3011C342.645 28.611 338.277 31.7779 332.822 31.7779C330.494 31.7779 328.387 31.3792 326.529 30.6136V24.5742H326.534Z" fill="white"/>
</svg>
